<svg height="256" width="256" xmlns="http://www.w3.org/2000/svg" xmlns:xlink="http://www.w3.org/1999/xlink"><defs><filter id="b1"><feGaussianBlur stdDeviation="5"/></filter><filter id="b2"><feGaussianBlur stdDeviation="2"/></filter></defs><rect width="256" height="256" style="fill:rgb(210,144,243)"/><circle cx="120" cy="20" r="20" stroke="none" stroke-width="3" fill="#FDB813" filter="url(#b1)"/><path transform="translate(80 20)" d="M 25,60 a 20,20 1 0,0 0,40 h 50 a 20,20 1 0,0 0,-40 a 10,10 1 0,0 -15,-10 a 15,15 1 0,0 -35,10 z" fill="#d0cccc" fill-opacity="0.7" filter="url(#b2)"/><path d="M 0 180 C 40 130, 65 100, 95 180 S 150 150, 256 180 L 256, 256 L 0, 256 Z" style="fill:rgb(170,100,66)" fill-opacity="1.0" stroke="none"/><path d="M 0 180 C 40 130, 65 100, 95 180 S 150 150, 256 180" fill="none" stroke="green"/><path transform="translate(28 10)" d="M 50 50 C 60 60, 60 60, 70 50" stroke="black" stroke-width="2" fill="none"/><path transform="translate(35 18)" d="M 50 50 C 60 60, 60 60, 70 50" stroke="black" stroke-width="2" fill="none"/><path transform="translate(25 15)" d="M 50 50 C 60 60, 60 60, 70 50" stroke="black" stroke-width="2" fill="none"/><line x1="128" y1="256" x2="128" y2="240" style="stroke:rgb(252, 201, 185);stroke-width:5" /><line x1="128" y1="240" x2="128" y2="224" style="stroke:rgb(252, 201, 185);stroke-width:5" /><line x1="128" y1="224" x2="140" y2="214" style="stroke:rgb(252, 201, 185);stroke-width:5" /><line x1="140" y1="214" x2="146" y2="200" style="stroke:rgb(252, 201, 185);stroke-width:5" /><line x1="146" y1="200" x2="146" y2="184" style="stroke:rgb(252, 201, 185);stroke-width:5" /><line x1="128" y1="224" x2="122" y2="210" style="stroke:rgb(252, 201, 185);stroke-width:5" /><line x1="122" y1="210" x2="122" y2="194" style="stroke:rgb(252, 201, 185);stroke-width:5" /><line x1="122" y1="194" x2="128" y2="180" style="stroke:rgb(252, 201, 185);stroke-width:5" /><line x1="128" y1="224" x2="128" y2="208" style="stroke:rgb(252, 201, 185);stroke-width:5" /><line x1="128" y1="208" x2="128" y2="192" style="stroke:rgb(252, 201, 185);stroke-width:5" /><line x1="128" y1="192" x2="140" y2="182" style="stroke:rgb(252, 201, 185);stroke-width:5" /><line x1="140" y1="182" x2="146" y2="168" style="stroke:rgb(252, 201, 185);stroke-width:5" /><line x1="146" y1="168" x2="146" y2="152" style="stroke:rgb(252, 201, 185);stroke-width:5" /><line x1="128" y1="192" x2="122" y2="178" style="stroke:rgb(252, 201, 185);stroke-width:5" /><line x1="122" y1="178" x2="122" y2="162" style="stroke:rgb(252, 201, 185);stroke-width:5" /><line x1="122" y1="162" x2="128" y2="148" style="stroke:rgb(252, 201, 185);stroke-width:5" /><line x1="128" y1="192" x2="140" y2="182" style="stroke:rgb(252, 201, 185);stroke-width:5" /><line x1="140" y1="182" x2="152" y2="172" style="stroke:rgb(252, 201, 185);stroke-width:5" /><line x1="152" y1="172" x2="167" y2="174" style="stroke:rgb(252, 201, 185);stroke-width:5" /><line x1="167" y1="174" x2="182" y2="170" style="stroke:rgb(252, 201, 185);stroke-width:5" /><line x1="182" y1="170" x2="194" y2="160" style="stroke:rgb(252, 201, 185);stroke-width:5" /><line x1="152" y1="172" x2="158" y2="158" style="stroke:rgb(252, 201, 185);stroke-width:5" /><line x1="158" y1="158" x2="170" y2="148" style="stroke:rgb(252, 201, 185);stroke-width:5" /><line x1="170" y1="148" x2="185" y2="144" style="stroke:rgb(252, 201, 185);stroke-width:5" /><line x1="152" y1="172" x2="158" y2="158" style="stroke:rgb(252, 201, 185);stroke-width:5" /><line x1="158" y1="158" x2="164" y2="144" style="stroke:rgb(252, 201, 185);stroke-width:5" /><line x1="164" y1="144" x2="179" y2="140" style="stroke:rgb(252, 201, 185);stroke-width:5" /><line x1="179" y1="140" x2="191" y2="130" style="stroke:rgb(252, 201, 185);stroke-width:5" /><line x1="191" y1="130" x2="197" y2="116" style="stroke:rgb(252, 201, 185);stroke-width:5" /><line x1="164" y1="144" x2="164" y2="128" style="stroke:rgb(252, 201, 185);stroke-width:5" /><line x1="164" y1="128" x2="170" y2="114" style="stroke:rgb(252, 201, 185);stroke-width:5" /><line x1="170" y1="114" x2="182" y2="104" style="stroke:rgb(252, 201, 185);stroke-width:5" /><line x1="164" y1="144" x2="164" y2="128" style="stroke:rgb(252, 201, 185);stroke-width:5" /><line x1="164" y1="128" x2="164" y2="112" style="stroke:rgb(252, 201, 185);stroke-width:5" /><line x1="164" y1="112" x2="176" y2="102" style="stroke:rgb(252, 201, 185);stroke-width:5" /><line x1="176" y1="102" x2="182" y2="88" style="stroke:rgb(252, 201, 185);stroke-width:5" /><line x1="182" y1="88" x2="182" y2="72" style="stroke:rgb(252, 201, 185);stroke-width:5" /><line x1="164" y1="112" x2="158" y2="98" style="stroke:rgb(252, 201, 185);stroke-width:5" /><line x1="158" y1="98" x2="158" y2="82" style="stroke:rgb(252, 201, 185);stroke-width:5" /><line x1="158" y1="82" x2="164" y2="68" style="stroke:rgb(252, 201, 185);stroke-width:5" /><line x1="128" y1="192" x2="122" y2="178" style="stroke:rgb(252, 201, 185);stroke-width:5" /><line x1="122" y1="178" x2="116" y2="164" style="stroke:rgb(252, 201, 185);stroke-width:5" /><line x1="116" y1="164" x2="122" y2="150" style="stroke:rgb(252, 201, 185);stroke-width:5" /><line x1="122" y1="150" x2="122" y2="134" style="stroke:rgb(252, 201, 185);stroke-width:5" /><line x1="122" y1="134" x2="116" y2="120" style="stroke:rgb(252, 201, 185);stroke-width:5" /><line x1="116" y1="164" x2="104" y2="154" style="stroke:rgb(252, 201, 185);stroke-width:5" /><line x1="104" y1="154" x2="98" y2="140" style="stroke:rgb(252, 201, 185);stroke-width:5" /><line x1="98" y1="140" x2="98" y2="124" style="stroke:rgb(252, 201, 185);stroke-width:5" /><line x1="116" y1="164" x2="116" y2="148" style="stroke:rgb(252, 201, 185);stroke-width:5" /><line x1="116" y1="148" x2="116" y2="132" style="stroke:rgb(252, 201, 185);stroke-width:5" /><line x1="116" y1="132" x2="128" y2="122" style="stroke:rgb(252, 201, 185);stroke-width:5" /><line x1="128" y1="122" x2="134" y2="108" style="stroke:rgb(252, 201, 185);stroke-width:5" /><line x1="134" y1="108" x2="134" y2="92" style="stroke:rgb(252, 201, 185);stroke-width:5" /><line x1="116" y1="132" x2="110" y2="118" style="stroke:rgb(252, 201, 185);stroke-width:5" /><line x1="110" y1="118" x2="110" y2="102" style="stroke:rgb(252, 201, 185);stroke-width:5" /><line x1="110" y1="102" x2="116" y2="88" style="stroke:rgb(252, 201, 185);stroke-width:5" /><line x1="116" y1="132" x2="122" y2="118" style="stroke:rgb(252, 201, 185);stroke-width:5" /><line x1="122" y1="118" x2="128" y2="104" style="stroke:rgb(252, 201, 185);stroke-width:5" /><line x1="128" y1="104" x2="143" y2="100" style="stroke:rgb(252, 201, 185);stroke-width:5" /><line x1="143" y1="100" x2="155" y2="90" style="stroke:rgb(252, 201, 185);stroke-width:5" /><line x1="155" y1="90" x2="161" y2="76" style="stroke:rgb(252, 201, 185);stroke-width:5" /><line x1="128" y1="104" x2="128" y2="88" style="stroke:rgb(252, 201, 185);stroke-width:5" /><line x1="128" y1="88" x2="134" y2="74" style="stroke:rgb(252, 201, 185);stroke-width:5" /><line x1="134" y1="74" x2="146" y2="64" style="stroke:rgb(252, 201, 185);stroke-width:5" /><line x1="128" y1="192" x2="122" y2="178" style="stroke:rgb(252, 201, 185);stroke-width:5" /><line x1="122" y1="178" x2="116" y2="164" style="stroke:rgb(252, 201, 185);stroke-width:5" /><line x1="116" y1="164" x2="122" y2="150" style="stroke:rgb(252, 201, 185);stroke-width:5" /><line x1="122" y1="150" x2="122" y2="134" style="stroke:rgb(252, 201, 185);stroke-width:5" /><line x1="122" y1="134" x2="116" y2="120" style="stroke:rgb(252, 201, 185);stroke-width:5" /><line x1="116" y1="164" x2="104" y2="154" style="stroke:rgb(252, 201, 185);stroke-width:5" /><line x1="104" y1="154" x2="98" y2="140" style="stroke:rgb(252, 201, 185);stroke-width:5" /><line x1="98" y1="140" x2="98" y2="124" style="stroke:rgb(252, 201, 185);stroke-width:5" /><line x1="116" y1="164" x2="116" y2="148" style="stroke:rgb(252, 201, 185);stroke-width:5" /><line x1="116" y1="148" x2="116" y2="132" style="stroke:rgb(252, 201, 185);stroke-width:5" /><line x1="116" y1="132" x2="128" y2="122" style="stroke:rgb(252, 201, 185);stroke-width:5" /><line x1="128" y1="122" x2="134" y2="108" style="stroke:rgb(252, 201, 185);stroke-width:5" /><line x1="134" y1="108" x2="134" y2="92" style="stroke:rgb(252, 201, 185);stroke-width:5" /><line x1="116" y1="132" x2="110" y2="118" style="stroke:rgb(252, 201, 185);stroke-width:5" /><line x1="110" y1="118" x2="110" y2="102" style="stroke:rgb(252, 201, 185);stroke-width:5" /><line x1="110" y1="102" x2="116" y2="88" style="stroke:rgb(252, 201, 185);stroke-width:5" /><line x1="116" y1="132" x2="122" y2="118" style="stroke:rgb(252, 201, 185);stroke-width:5" /><line x1="122" y1="118" x2="128" y2="104" style="stroke:rgb(252, 201, 185);stroke-width:5" /><line x1="128" y1="104" x2="143" y2="100" style="stroke:rgb(252, 201, 185);stroke-width:5" /><line x1="143" y1="100" x2="155" y2="90" style="stroke:rgb(252, 201, 185);stroke-width:5" /><line x1="155" y1="90" x2="161" y2="76" style="stroke:rgb(252, 201, 185);stroke-width:5" /><line x1="128" y1="104" x2="128" y2="88" style="stroke:rgb(252, 201, 185);stroke-width:5" /><line x1="128" y1="88" x2="134" y2="74" style="stroke:rgb(252, 201, 185);stroke-width:5" /><line x1="134" y1="74" x2="146" y2="64" style="stroke:rgb(252, 201, 185);stroke-width:5" /><line x1="128" y1="192" x2="128" y2="176" style="stroke:rgb(252, 201, 185);stroke-width:5" /><line x1="128" y1="176" x2="128" y2="160" style="stroke:rgb(252, 201, 185);stroke-width:5" /><line x1="128" y1="160" x2="140" y2="150" style="stroke:rgb(252, 201, 185);stroke-width:5" /><line x1="140" y1="150" x2="146" y2="136" style="stroke:rgb(252, 201, 185);stroke-width:5" /><line x1="146" y1="136" x2="146" y2="120" style="stroke:rgb(252, 201, 185);stroke-width:5" /><line x1="128" y1="160" x2="122" y2="146" style="stroke:rgb(252, 201, 185);stroke-width:5" /><line x1="122" y1="146" x2="122" y2="130" style="stroke:rgb(252, 201, 185);stroke-width:5" /><line x1="122" y1="130" x2="128" y2="116" style="stroke:rgb(252, 201, 185);stroke-width:5" /><line x1="128" y1="160" x2="134" y2="146" style="stroke:rgb(252, 201, 185);stroke-width:5" /><line x1="134" y1="146" x2="140" y2="132" style="stroke:rgb(252, 201, 185);stroke-width:5" /><line x1="140" y1="132" x2="155" y2="128" style="stroke:rgb(252, 201, 185);stroke-width:5" /><line x1="155" y1="128" x2="167" y2="118" style="stroke:rgb(252, 201, 185);stroke-width:5" /><line x1="167" y1="118" x2="173" y2="104" style="stroke:rgb(252, 201, 185);stroke-width:5" /><line x1="140" y1="132" x2="140" y2="116" style="stroke:rgb(252, 201, 185);stroke-width:5" /><line x1="140" y1="116" x2="146" y2="102" style="stroke:rgb(252, 201, 185);stroke-width:5" /><line x1="146" y1="102" x2="158" y2="92" style="stroke:rgb(252, 201, 185);stroke-width:5" /><line x1="140" y1="132" x2="152" y2="122" style="stroke:rgb(252, 201, 185);stroke-width:5" /><line x1="152" y1="122" x2="164" y2="112" style="stroke:rgb(252, 201, 185);stroke-width:5" /><line x1="164" y1="112" x2="179" y2="114" style="stroke:rgb(252, 201, 185);stroke-width:5" /><line x1="179" y1="114" x2="194" y2="110" style="stroke:rgb(252, 201, 185);stroke-width:5" /><line x1="194" y1="110" x2="206" y2="100" style="stroke:rgb(252, 201, 185);stroke-width:5" /><line x1="164" y1="112" x2="170" y2="98" style="stroke:rgb(252, 201, 185);stroke-width:5" /><line x1="170" y1="98" x2="182" y2="88" style="stroke:rgb(252, 201, 185);stroke-width:5" /><line x1="182" y1="88" x2="197" y2="84" style="stroke:rgb(252, 201, 185);stroke-width:5" /><text x="5" y="245">3910/mainnet https://yournftree.com/</text></svg>