<svg height="256" width="256" xmlns="http://www.w3.org/2000/svg" xmlns:xlink="http://www.w3.org/1999/xlink"><defs><filter id="b1"><feGaussianBlur stdDeviation="5"/></filter><filter id="b2"><feGaussianBlur stdDeviation="2"/></filter></defs><rect width="256" height="256" style="fill:rgb(79,125,224)"/><circle cx="139" cy="39" r="19" stroke="none" stroke-width="3" fill="#FDB813" filter="url(#b1)"/><path transform="translate(179 14)" d="M 25,60 a 20,20 1 0,0 0,40 h 50 a 20,20 1 0,0 0,-40 a 10,10 1 0,0 -15,-10 a 15,15 1 0,0 -35,10 z" fill="#d0cccc" fill-opacity="0.7" filter="url(#b2)"/><path d="M 0 180 C 40 130, 65 100, 95 180 S 150 150, 256 180 L 256, 256 L 0, 256 Z" style="fill:rgb(149,109,66)" fill-opacity="1.0" stroke="none"/><path d="M 0 180 C 40 130, 65 100, 95 180 S 150 150, 256 180" fill="none" stroke="green"/><path transform="translate(28 10)" d="M 50 50 C 60 60, 60 60, 70 50" stroke="black" stroke-width="2" fill="none"/><path transform="translate(35 18)" d="M 50 50 C 60 60, 60 60, 70 50" stroke="black" stroke-width="2" fill="none"/><path transform="translate(25 15)" d="M 50 50 C 60 60, 60 60, 70 50" stroke="black" stroke-width="2" fill="none"/><line x1="128" y1="256" x2="128" y2="240" style="stroke:rgb(252, 201, 185);stroke-width:5" /><line x1="128" y1="240" x2="128" y2="224" style="stroke:rgb(252, 201, 185);stroke-width:5" /><line x1="128" y1="224" x2="142" y2="219" style="stroke:rgb(252, 201, 185);stroke-width:5" /><line x1="142" y1="219" x2="151" y2="207" style="stroke:rgb(252, 201, 185);stroke-width:5" /><line x1="151" y1="207" x2="151" y2="191" style="stroke:rgb(252, 201, 185);stroke-width:5" /><line x1="128" y1="224" x2="119" y2="212" style="stroke:rgb(252, 201, 185);stroke-width:5" /><line x1="119" y1="212" x2="119" y2="196" style="stroke:rgb(252, 201, 185);stroke-width:5" /><line x1="119" y1="196" x2="128" y2="184" style="stroke:rgb(252, 201, 185);stroke-width:5" /><line x1="128" y1="224" x2="128" y2="208" style="stroke:rgb(252, 201, 185);stroke-width:5" /><line x1="128" y1="208" x2="128" y2="192" style="stroke:rgb(252, 201, 185);stroke-width:5" /><line x1="128" y1="192" x2="142" y2="187" style="stroke:rgb(252, 201, 185);stroke-width:5" /><line x1="142" y1="187" x2="151" y2="175" style="stroke:rgb(252, 201, 185);stroke-width:5" /><line x1="151" y1="175" x2="151" y2="159" style="stroke:rgb(252, 201, 185);stroke-width:5" /><line x1="128" y1="192" x2="119" y2="180" style="stroke:rgb(252, 201, 185);stroke-width:5" /><line x1="119" y1="180" x2="119" y2="164" style="stroke:rgb(252, 201, 185);stroke-width:5" /><line x1="119" y1="164" x2="128" y2="152" style="stroke:rgb(252, 201, 185);stroke-width:5" /><line x1="128" y1="192" x2="142" y2="187" style="stroke:rgb(252, 201, 185);stroke-width:5" /><line x1="142" y1="187" x2="156" y2="182" style="stroke:rgb(252, 201, 185);stroke-width:5" /><line x1="156" y1="182" x2="166" y2="194" style="stroke:rgb(252, 201, 185);stroke-width:5" /><line x1="166" y1="194" x2="181" y2="198" style="stroke:rgb(252, 201, 185);stroke-width:5" /><line x1="181" y1="198" x2="195" y2="193" style="stroke:rgb(252, 201, 185);stroke-width:5" /><line x1="156" y1="182" x2="165" y2="170" style="stroke:rgb(252, 201, 185);stroke-width:5" /><line x1="165" y1="170" x2="179" y2="165" style="stroke:rgb(252, 201, 185);stroke-width:5" /><line x1="179" y1="165" x2="194" y2="169" style="stroke:rgb(252, 201, 185);stroke-width:5" /><line x1="156" y1="182" x2="165" y2="170" style="stroke:rgb(252, 201, 185);stroke-width:5" /><line x1="165" y1="170" x2="174" y2="158" style="stroke:rgb(252, 201, 185);stroke-width:5" /><line x1="174" y1="158" x2="189" y2="162" style="stroke:rgb(252, 201, 185);stroke-width:5" /><line x1="189" y1="162" x2="203" y2="157" style="stroke:rgb(252, 201, 185);stroke-width:5" /><line x1="203" y1="157" x2="212" y2="145" style="stroke:rgb(252, 201, 185);stroke-width:5" /><line x1="174" y1="158" x2="174" y2="142" style="stroke:rgb(252, 201, 185);stroke-width:5" /><line x1="174" y1="142" x2="183" y2="130" style="stroke:rgb(252, 201, 185);stroke-width:5" /><line x1="183" y1="130" x2="197" y2="125" style="stroke:rgb(252, 201, 185);stroke-width:5" /><line x1="174" y1="158" x2="174" y2="142" style="stroke:rgb(252, 201, 185);stroke-width:5" /><line x1="174" y1="142" x2="174" y2="126" style="stroke:rgb(252, 201, 185);stroke-width:5" /><line x1="174" y1="126" x2="188" y2="121" style="stroke:rgb(252, 201, 185);stroke-width:5" /><line x1="188" y1="121" x2="197" y2="109" style="stroke:rgb(252, 201, 185);stroke-width:5" /><line x1="197" y1="109" x2="197" y2="93" style="stroke:rgb(252, 201, 185);stroke-width:5" /><line x1="174" y1="126" x2="165" y2="114" style="stroke:rgb(252, 201, 185);stroke-width:5" /><line x1="165" y1="114" x2="165" y2="98" style="stroke:rgb(252, 201, 185);stroke-width:5" /><line x1="165" y1="98" x2="174" y2="86" style="stroke:rgb(252, 201, 185);stroke-width:5" /><line x1="128" y1="192" x2="119" y2="180" style="stroke:rgb(252, 201, 185);stroke-width:5" /><line x1="119" y1="180" x2="110" y2="168" style="stroke:rgb(252, 201, 185);stroke-width:5" /><line x1="110" y1="168" x2="119" y2="156" style="stroke:rgb(252, 201, 185);stroke-width:5" /><line x1="119" y1="156" x2="119" y2="140" style="stroke:rgb(252, 201, 185);stroke-width:5" /><line x1="119" y1="140" x2="110" y2="128" style="stroke:rgb(252, 201, 185);stroke-width:5" /><line x1="110" y1="168" x2="96" y2="163" style="stroke:rgb(252, 201, 185);stroke-width:5" /><line x1="96" y1="163" x2="87" y2="151" style="stroke:rgb(252, 201, 185);stroke-width:5" /><line x1="87" y1="151" x2="87" y2="135" style="stroke:rgb(252, 201, 185);stroke-width:5" /><line x1="110" y1="168" x2="110" y2="152" style="stroke:rgb(252, 201, 185);stroke-width:5" /><line x1="110" y1="152" x2="110" y2="136" style="stroke:rgb(252, 201, 185);stroke-width:5" /><line x1="110" y1="136" x2="124" y2="131" style="stroke:rgb(252, 201, 185);stroke-width:5" /><line x1="124" y1="131" x2="133" y2="119" style="stroke:rgb(252, 201, 185);stroke-width:5" /><line x1="133" y1="119" x2="133" y2="103" style="stroke:rgb(252, 201, 185);stroke-width:5" /><line x1="110" y1="136" x2="101" y2="124" style="stroke:rgb(252, 201, 185);stroke-width:5" /><line x1="101" y1="124" x2="101" y2="108" style="stroke:rgb(252, 201, 185);stroke-width:5" /><line x1="101" y1="108" x2="110" y2="96" style="stroke:rgb(252, 201, 185);stroke-width:5" /><line x1="110" y1="136" x2="119" y2="124" style="stroke:rgb(252, 201, 185);stroke-width:5" /><line x1="119" y1="124" x2="128" y2="112" style="stroke:rgb(252, 201, 185);stroke-width:5" /><line x1="128" y1="112" x2="143" y2="116" style="stroke:rgb(252, 201, 185);stroke-width:5" /><line x1="143" y1="116" x2="157" y2="111" style="stroke:rgb(252, 201, 185);stroke-width:5" /><line x1="157" y1="111" x2="166" y2="99" style="stroke:rgb(252, 201, 185);stroke-width:5" /><line x1="128" y1="112" x2="128" y2="96" style="stroke:rgb(252, 201, 185);stroke-width:5" /><line x1="128" y1="96" x2="137" y2="84" style="stroke:rgb(252, 201, 185);stroke-width:5" /><line x1="137" y1="84" x2="151" y2="79" style="stroke:rgb(252, 201, 185);stroke-width:5" /><line x1="128" y1="192" x2="119" y2="180" style="stroke:rgb(252, 201, 185);stroke-width:5" /><line x1="119" y1="180" x2="110" y2="168" style="stroke:rgb(252, 201, 185);stroke-width:5" /><line x1="110" y1="168" x2="119" y2="156" style="stroke:rgb(252, 201, 185);stroke-width:5" /><line x1="119" y1="156" x2="119" y2="140" style="stroke:rgb(252, 201, 185);stroke-width:5" /><line x1="119" y1="140" x2="110" y2="128" style="stroke:rgb(252, 201, 185);stroke-width:5" /><line x1="110" y1="168" x2="96" y2="163" style="stroke:rgb(252, 201, 185);stroke-width:5" /><line x1="96" y1="163" x2="87" y2="151" style="stroke:rgb(252, 201, 185);stroke-width:5" /><line x1="87" y1="151" x2="87" y2="135" style="stroke:rgb(252, 201, 185);stroke-width:5" /><line x1="110" y1="168" x2="110" y2="152" style="stroke:rgb(252, 201, 185);stroke-width:5" /><line x1="110" y1="152" x2="110" y2="136" style="stroke:rgb(252, 201, 185);stroke-width:5" /><line x1="110" y1="136" x2="124" y2="131" style="stroke:rgb(252, 201, 185);stroke-width:5" /><line x1="124" y1="131" x2="133" y2="119" style="stroke:rgb(252, 201, 185);stroke-width:5" /><line x1="133" y1="119" x2="133" y2="103" style="stroke:rgb(252, 201, 185);stroke-width:5" /><line x1="110" y1="136" x2="101" y2="124" style="stroke:rgb(252, 201, 185);stroke-width:5" /><line x1="101" y1="124" x2="101" y2="108" style="stroke:rgb(252, 201, 185);stroke-width:5" /><line x1="101" y1="108" x2="110" y2="96" style="stroke:rgb(252, 201, 185);stroke-width:5" /><line x1="110" y1="136" x2="119" y2="124" style="stroke:rgb(252, 201, 185);stroke-width:5" /><line x1="119" y1="124" x2="128" y2="112" style="stroke:rgb(252, 201, 185);stroke-width:5" /><line x1="128" y1="112" x2="143" y2="116" style="stroke:rgb(252, 201, 185);stroke-width:5" /><line x1="143" y1="116" x2="157" y2="111" style="stroke:rgb(252, 201, 185);stroke-width:5" /><line x1="157" y1="111" x2="166" y2="99" style="stroke:rgb(252, 201, 185);stroke-width:5" /><line x1="128" y1="112" x2="128" y2="96" style="stroke:rgb(252, 201, 185);stroke-width:5" /><line x1="128" y1="96" x2="137" y2="84" style="stroke:rgb(252, 201, 185);stroke-width:5" /><line x1="137" y1="84" x2="151" y2="79" style="stroke:rgb(252, 201, 185);stroke-width:5" /><line x1="128" y1="192" x2="128" y2="176" style="stroke:rgb(252, 201, 185);stroke-width:5" /><line x1="128" y1="176" x2="128" y2="160" style="stroke:rgb(252, 201, 185);stroke-width:5" /><line x1="128" y1="160" x2="142" y2="155" style="stroke:rgb(252, 201, 185);stroke-width:5" /><line x1="142" y1="155" x2="151" y2="143" style="stroke:rgb(252, 201, 185);stroke-width:5" /><line x1="151" y1="143" x2="151" y2="127" style="stroke:rgb(252, 201, 185);stroke-width:5" /><line x1="128" y1="160" x2="119" y2="148" style="stroke:rgb(252, 201, 185);stroke-width:5" /><line x1="119" y1="148" x2="119" y2="132" style="stroke:rgb(252, 201, 185);stroke-width:5" /><line x1="119" y1="132" x2="128" y2="120" style="stroke:rgb(252, 201, 185);stroke-width:5" /><line x1="128" y1="160" x2="137" y2="148" style="stroke:rgb(252, 201, 185);stroke-width:5" /><line x1="137" y1="148" x2="146" y2="136" style="stroke:rgb(252, 201, 185);stroke-width:5" /><line x1="146" y1="136" x2="161" y2="140" style="stroke:rgb(252, 201, 185);stroke-width:5" /><line x1="161" y1="140" x2="175" y2="135" style="stroke:rgb(252, 201, 185);stroke-width:5" /><line x1="175" y1="135" x2="184" y2="123" style="stroke:rgb(252, 201, 185);stroke-width:5" /><line x1="146" y1="136" x2="146" y2="120" style="stroke:rgb(252, 201, 185);stroke-width:5" /><line x1="146" y1="120" x2="155" y2="108" style="stroke:rgb(252, 201, 185);stroke-width:5" /><line x1="155" y1="108" x2="169" y2="103" style="stroke:rgb(252, 201, 185);stroke-width:5" /><line x1="146" y1="136" x2="160" y2="131" style="stroke:rgb(252, 201, 185);stroke-width:5" /><line x1="160" y1="131" x2="174" y2="126" style="stroke:rgb(252, 201, 185);stroke-width:5" /><line x1="174" y1="126" x2="184" y2="138" style="stroke:rgb(252, 201, 185);stroke-width:5" /><line x1="184" y1="138" x2="199" y2="142" style="stroke:rgb(252, 201, 185);stroke-width:5" /><line x1="199" y1="142" x2="213" y2="137" style="stroke:rgb(252, 201, 185);stroke-width:5" /><line x1="174" y1="126" x2="183" y2="114" style="stroke:rgb(252, 201, 185);stroke-width:5" /><line x1="183" y1="114" x2="197" y2="109" style="stroke:rgb(252, 201, 185);stroke-width:5" /><line x1="197" y1="109" x2="212" y2="113" style="stroke:rgb(252, 201, 185);stroke-width:5" /><text x="5" y="245">9529/mainnet https://yournftree.com/</text></svg>